<svg id="Layer_1" data-name="Layer 1" xmlns="http://www.w3.org/2000/svg" viewBox="0 0 408.62 970.37"><defs><style>.cls-1{fill:#d32027;}.cls-2{fill:#fff;}</style></defs><polygon class="cls-1" points="238.83 0 98.89 382.63 168.86 382.63 61.57 662.51 89.56 662.51 0 970.37 225.76 531.9 169.79 533.76 304.13 278.14 250.02 280.01 408.62 0 238.83 0"/><path class="cls-2" d="M474.06,383a4.46,4.46,0,0,1-3.13-1,3.33,3.33,0,0,1-1.06-2.58,4.44,4.44,0,0,1,.53-2.14,4,4,0,0,1,1.6-1.62,5.3,5.3,0,0,1,2.71-.62,6.25,6.25,0,0,1,1.57.19,3.66,3.66,0,0,1,1.26.55l-.83,1.88a2.39,2.39,0,0,0-.8-.4,3.2,3.2,0,0,0-1-.15,2.09,2.09,0,0,0-1.24.33,1.83,1.83,0,0,0-.67.86,2.88,2.88,0,0,0-.21,1.08,1.52,1.52,0,0,0,.4,1.1,1.71,1.71,0,0,0,1.3.43,3.14,3.14,0,0,0,.86-.14,3.35,3.35,0,0,0,.83-.4l.59,1.89a3.21,3.21,0,0,1-1.25.54A6.8,6.8,0,0,1,474.06,383Z" transform="translate(-340.94 -56.42)"/><path class="cls-2" d="M481.39,383a2.44,2.44,0,0,1-2.74-3.2L480,371.9h2.9l-1.32,7.81c-.11.7.19,1.05.88,1.05h.34l.33,0-.37,2.08A5.41,5.41,0,0,1,481.39,383Z" transform="translate(-340.94 -56.42)"/><path class="cls-2" d="M484.45,382.79l1.28-7.6h2.9l-1.28,7.6Zm1.42-8.91.43-2.49h3l-.42,2.49Z" transform="translate(-340.94 -56.42)"/><path class="cls-2" d="M494.1,383a4.48,4.48,0,0,1-3.13-1,3.36,3.36,0,0,1-1.06-2.58,4.55,4.55,0,0,1,.53-2.14,4,4,0,0,1,1.61-1.62,5.29,5.29,0,0,1,2.7-.62,6.33,6.33,0,0,1,1.58.19,3.84,3.84,0,0,1,1.26.55l-.83,1.88a2.49,2.49,0,0,0-.8-.4,3.3,3.3,0,0,0-1-.15,2.13,2.13,0,0,0-1.25.33,1.89,1.89,0,0,0-.67.86,3.08,3.08,0,0,0-.2,1.08,1.56,1.56,0,0,0,.39,1.1,1.72,1.72,0,0,0,1.3.43,3.08,3.08,0,0,0,.86-.14,3.26,3.26,0,0,0,.84-.4l.59,1.89a3.33,3.33,0,0,1-1.26.54A6.67,6.67,0,0,1,494.1,383Z" transform="translate(-340.94 -56.42)"/><path class="cls-2" d="M498.21,382.79,500,371.9h2.9l-1.06,6.35h0l3.1-3.06h3.37l-3.73,3.75,2.66,3.85H504l-2.31-3.31h0l-.54,3.31Z" transform="translate(-340.94 -56.42)"/><path class="cls-2" d="M518,383a4.24,4.24,0,0,1-2-.42,2.31,2.31,0,0,1-1.09-1.16,3,3,0,0,1-.15-1.7l.42-2.47h-1.49l.34-2h1.5l.36-2.21h2.9l-.36,2.21h2.31l-.34,2H518l-.41,2.36a1,1,0,0,0,.2.91,1.3,1.3,0,0,0,.89.27,3.14,3.14,0,0,0,.86-.14l.09,2a3.43,3.43,0,0,1-.8.23A5.67,5.67,0,0,1,518,383Z" transform="translate(-340.94 -56.42)"/><path class="cls-2" d="M521.15,382.79,523,371.9h2.9l-.72,4.25a3,3,0,0,1,2.56-1.13,2.54,2.54,0,0,1,2,.78,2.9,2.9,0,0,1,.42,2.49l-.75,4.5h-2.9l.74-4.45a1.41,1.41,0,0,0-.09-.91.79.79,0,0,0-.74-.31,1.49,1.49,0,0,0-1.1.42,2.15,2.15,0,0,0-.57,1.2l-.66,4.05Z" transform="translate(-340.94 -56.42)"/><path class="cls-2" d="M536.2,383a5.41,5.41,0,0,1-2.25-.44,3.56,3.56,0,0,1-1.5-1.25,3.26,3.26,0,0,1-.54-1.87,4.27,4.27,0,0,1,.61-2.3,4.15,4.15,0,0,1,1.66-1.53,4.87,4.87,0,0,1,2.34-.55,3.93,3.93,0,0,1,2.21.55,2.84,2.84,0,0,1,1.17,1.49,4.45,4.45,0,0,1,.16,2.08l-.07.4H534.6a1.26,1.26,0,0,0,.54,1,2.41,2.41,0,0,0,1.38.35,4.76,4.76,0,0,0,1.31-.18,3.38,3.38,0,0,0,1.12-.5l.6,1.79a4.54,4.54,0,0,1-1.47.68A7.07,7.07,0,0,1,536.2,383Zm.29-6.15a1.55,1.55,0,0,0-1.15.42,2,2,0,0,0-.56,1h3.08a1.47,1.47,0,0,0-.3-1A1.32,1.32,0,0,0,536.49,376.81Z" transform="translate(-340.94 -56.42)"/><path class="cls-2" d="M551,383a4.27,4.27,0,0,1-2-.42,2.35,2.35,0,0,1-1.09-1.16,3,3,0,0,1-.15-1.7l.43-2.47h-1.5l.34-2h1.5l.36-2.21h2.9l-.36,2.21h2.31l-.34,2h-2.31l-.41,2.36a1,1,0,0,0,.2.91,1.32,1.32,0,0,0,.89.27,3.27,3.27,0,0,0,.87-.14l.08,2a3.43,3.43,0,0,1-.8.23A5.57,5.57,0,0,1,551,383Z" transform="translate(-340.94 -56.42)"/><path class="cls-2" d="M554.24,382.79l1.82-10.89H559l-.71,4.25A3,3,0,0,1,560.8,375a2.53,2.53,0,0,1,2,.78,2.94,2.94,0,0,1,.43,2.49l-.75,4.5h-2.9l.73-4.45a1.35,1.35,0,0,0-.09-.91.79.79,0,0,0-.74-.31,1.51,1.51,0,0,0-1.1.42,2.08,2.08,0,0,0-.56,1.2l-.67,4.05Z" transform="translate(-340.94 -56.42)"/><path class="cls-2" d="M567.62,383a3,3,0,0,1-1.47-.34,1.93,1.93,0,0,1-.86-1.07,3.66,3.66,0,0,1-.07-1.87l.75-4.49h2.9l-.73,4.45c-.14.81.12,1.21.8,1.21a1.43,1.43,0,0,0,1.06-.43,2.24,2.24,0,0,0,.55-1.2l.67-4h2.9l-1.27,7.6H570l.18-1.09a2.61,2.61,0,0,1-1.09.94A3.45,3.45,0,0,1,567.62,383Z" transform="translate(-340.94 -56.42)"/><path class="cls-2" d="M575.18,382.79l1.27-7.6h2.82l-.18,1.08a3,3,0,0,1,2.66-1.25,2.52,2.52,0,0,1,2,.78,2.94,2.94,0,0,1,.43,2.49l-.75,4.5h-2.9l.73-4.45a1.29,1.29,0,0,0-.09-.91.78.78,0,0,0-.74-.31,1.51,1.51,0,0,0-1.1.42,2.08,2.08,0,0,0-.56,1.2l-.67,4.05Z" transform="translate(-340.94 -56.42)"/><path class="cls-2" d="M588.88,383a2.73,2.73,0,0,1-2.15-.9,3.46,3.46,0,0,1-.81-2.41,5.52,5.52,0,0,1,.5-2.39,4.05,4.05,0,0,1,1.42-1.64A3.81,3.81,0,0,1,590,375a3.19,3.19,0,0,1,1.4.3,2.08,2.08,0,0,1,.94.89l.72-4.31h2.9l-1.82,10.89h-2.84l.18-1.07a3.14,3.14,0,0,1-1.13.91A3.19,3.19,0,0,1,588.88,383Zm1.23-2a1.47,1.47,0,0,0,1.28-.69,3,3,0,0,0,.48-1.76,1.51,1.51,0,0,0-.34-1.07,1.16,1.16,0,0,0-.92-.37,1.49,1.49,0,0,0-1.3.69,3,3,0,0,0-.47,1.77,1.55,1.55,0,0,0,.33,1.06A1.19,1.19,0,0,0,590.11,380.93Z" transform="translate(-340.94 -56.42)"/><path class="cls-2" d="M601,383a5.41,5.41,0,0,1-2.25-.44,3.56,3.56,0,0,1-1.5-1.25,3.26,3.26,0,0,1-.54-1.87,4.28,4.28,0,0,1,.62-2.3,4.12,4.12,0,0,1,1.65-1.53,4.94,4.94,0,0,1,2.35-.55,4,4,0,0,1,2.21.55,2.87,2.87,0,0,1,1.16,1.49,4.33,4.33,0,0,1,.16,2.08l-.06.4h-5.4a1.31,1.31,0,0,0,.54,1,2.44,2.44,0,0,0,1.39.35,4.87,4.87,0,0,0,1.31-.18,3.47,3.47,0,0,0,1.12-.5l.6,1.79a4.6,4.6,0,0,1-1.48.68A7.07,7.07,0,0,1,601,383Zm.29-6.15a1.52,1.52,0,0,0-1.14.42,2.06,2.06,0,0,0-.57,1h3.08a1.42,1.42,0,0,0-.3-1A1.3,1.3,0,0,0,601.25,376.81Z" transform="translate(-340.94 -56.42)"/><path class="cls-2" d="M606.13,382.79l1.27-7.6h2.82l-.23,1.33a2.67,2.67,0,0,1,1-1,3.48,3.48,0,0,1,1.56-.45l.78,0-.13,2.32-1.81.17a1.92,1.92,0,0,0-1.24.46,2.23,2.23,0,0,0-.5,1.21l-.6,3.66Z" transform="translate(-340.94 -56.42)"/></svg>